<svg width="16" height="16" viewBox="0 0 16 16" fill="none" xmlns="http://www.w3.org/2000/svg">
<g clip-path="url(#clip0_13_29)">
<path d="M15.7205 10.5091C15.7609 10.376 15.7939 10.241 15.8268 10.1061C15.8427 10.0423 15.8616 9.97978 15.8756 9.91532C15.8822 9.88528 15.886 9.85478 15.8921 9.82463C15.9251 9.66494 15.9566 9.50457 15.9798 9.34138C15.9787 9.34185 15.9778 9.34222 15.9767 9.34272C15.977 9.34078 15.9775 9.33878 15.9777 9.33685C15.1827 9.68425 14.3528 9.87428 13.5278 9.87428C10.9815 9.87428 8.64731 7.97303 7.42728 5.58185C7.41909 5.56597 7.41047 5.55035 7.4025 5.53447C7.36637 5.46257 7.33268 5.38985 7.29862 5.31719C7.27643 5.26972 7.25359 5.2225 7.23234 5.17463C7.2044 5.11238 7.17828 5.04938 7.1519 4.98653C7.12797 4.92953 7.10418 4.87241 7.08147 4.81503C7.05718 4.75316 7.034 4.691 7.01115 4.62863C6.99053 4.57272 6.9705 4.51669 6.95122 4.46057C6.92778 4.39222 6.90518 4.32375 6.88372 4.255C6.86918 4.20897 6.8554 4.1631 6.84172 4.11694C6.8179 4.03588 6.79484 3.95485 6.77375 3.87344C6.76653 3.84572 6.75981 3.81813 6.753 3.79053C6.61275 3.22503 6.53718 2.65219 6.53828 2.08728C6.53828 1.46272 6.62997 0.854971 6.78837 0.277721C6.81415 0.186658 6.83672 0.0948772 6.86637 0.00478345C6.86578 0.00490845 6.86506 0.00515845 6.86431 0.00528345C6.86493 0.00347095 6.86528 0.00159595 6.86578 -9.15527e-05C5.22587 0.232315 3.62859 0.977377 2.36609 2.23972C-0.71866 5.32447 -0.78116 10.7742 2.29615 13.8515C5.37847 16.9337 10.8431 16.5937 13.9253 13.509C14.7937 12.6406 15.3848 11.6114 15.7193 10.5125C15.7196 10.5113 15.7201 10.5103 15.7205 10.5091ZM3.58984 7.17016C3.63978 7.39647 3.61278 7.66366 3.49609 7.91938C3.26368 8.43435 2.75872 8.70935 2.36875 8.53188C2.176 8.44547 2.04796 8.26394 1.99559 8.04069C1.99462 8.03653 1.9934 8.03238 1.9924 8.02825C1.94259 7.80244 1.96959 7.53513 2.08628 7.27953C2.31868 6.76457 2.82365 6.48957 3.21362 6.6646C3.4065 6.75238 3.53465 6.9346 3.5869 7.15847C3.58787 7.16235 3.58897 7.16625 3.58984 7.17016Z" fill="#4B4B4B"/>
</g>
<defs>
<clipPath id="clip0_13_29">
<rect width="16" height="16" fill="white"/>
</clipPath>
</defs>
</svg>
